<?xml version="1.0" encoding="UTF-8"?>
<svg id="Layer_1" xmlns="http://www.w3.org/2000/svg" version="1.1" viewBox="0 0 500 500">
  <!-- Generator: Adobe Illustrator 29.6.1, SVG Export Plug-In . SVG Version: 2.1.1 Build 9)  -->
  <defs>
    <style>
      .st0, .st1, .st2 {
        fill: #231f20;
      }

      .st3, .st1, .st2 {
        isolation: isolate;
      }

      .st4 {
        fill: #00ecff;
      }

      .st5 {
        fill: #009fff;
      }

      .st1 {
        letter-spacing: -.02em;
      }

      .st1, .st2 {
        font-family: ArialMT, Arial;
        font-size: 60.04px;
      }
    </style>
  </defs>
  <g class="st3">
    <text class="st2" transform="translate(113.28 307.84) scale(1.08 1)"><tspan x="0" y="0">S</tspan></text>
    <text class="st2" transform="translate(152.13 307.84) scale(1.08 1)"><tspan x="0" y="0">o</tspan></text>
    <text class="st2" transform="translate(189.47 307.84) scale(1.08 1)"><tspan x="0" y="0">f</tspan></text>
    <text class="st2" transform="translate(212.68 307.84) scale(1.08 1)"><tspan x="0" y="0">t</tspan></text>
    <text class="st2" transform="translate(237.13 307.84) scale(1.08 1)"><tspan x="0" y="0">w</tspan></text>
    <text class="st2" transform="translate(288.05 307.84) scale(1.08 1)"><tspan x="0" y="0">a</tspan></text>
    <text class="st1" transform="translate(326.82 307.84) scale(1.08 1)"><tspan x="0" y="0">r</tspan></text>
    <text class="st2" transform="translate(349.91 307.84) scale(1.08 1)"><tspan x="0" y="0">e</tspan></text>
  </g>
  <path class="st0" d="M118.05,222.81l-.11-4.07h13.88v4.99c0,8.76,6.28,13.85,15.76,13.85s16.09-5.09,16.09-13.85v-35.34h-10.8v-11.71h24.57v46.14c0,16.3-11.79,26.48-29.42,26.48h-.55c-17.63,0-29.42-10.19-29.42-26.48h0Z"/>
  <path class="st0" d="M187.91,176.67h29.2c22.92,0,37.13,14.06,37.13,35.24s-14.21,36.06-37.13,36.06h-29.2v-71.3ZM215.78,236.25c15.43,0,24.68-9.47,24.68-23.73s-9.25-24.14-24.68-24.14h-14.1v47.87h14.1Z"/>
  <g>
    <polygon class="st5" points="279.31 212.32 253.11 176.68 279.31 176.68 293.08 195.43 331.72 248.06 306.08 248.06 292.67 231.11 281.3 248.06 254.25 248.06 279.31 212.32"/>
    <path class="st4" d="M321.41,197.41c4.46-6.91,8.93-13.83,13.39-20.74h-26.77c-4.37,6.91-8.75,13.83-13.12,20.74h26.51-.01Z"/>
  </g>
</svg>