<?xml version="1.0" encoding="UTF-8"?>
<svg id="Layer_1" xmlns="http://www.w3.org/2000/svg" version="1.1" viewBox="0 0 500 500">
  <!-- Generator: Adobe Illustrator 29.6.1, SVG Export Plug-In . SVG Version: 2.1.1 Build 9)  -->
  <defs>
    <style>
      .st0 {
        fill: #231f20;
      }

      .st1 {
        fill: #00ecff;
      }

      .st2 {
        fill: #009fff;
      }
    </style>
  </defs>
  <path class="st0" d="M141.68,259.83l-.11-4.07h13.88v4.99c0,8.76,6.28,13.85,15.76,13.85s16.09-5.09,16.09-13.85v-35.34h-10.8v-11.71h24.57v46.14c0,16.3-11.79,26.48-29.42,26.48h-.55c-17.63,0-29.42-10.19-29.42-26.48h0Z"/>
  <path class="st0" d="M211.54,213.69h29.2c22.92,0,37.13,14.06,37.13,35.24s-14.21,36.06-37.13,36.06h-29.2v-71.3ZM239.41,273.27c15.43,0,24.68-9.47,24.68-23.73s-9.25-24.14-24.68-24.14h-14.1v47.87h14.1Z"/>
  <g>
    <polygon class="st2" points="302.94 249.34 276.74 213.69 302.94 213.69 316.71 232.44 355.35 285.08 329.71 285.08 316.3 268.13 304.93 285.08 277.88 285.08 302.94 249.34"/>
    <path class="st1" d="M345.04,234.43c4.46-6.91,8.93-13.83,13.39-20.74h-26.77c-4.37,6.91-8.75,13.83-13.12,20.74h26.51-.01Z"/>
  </g>
</svg>