<?xml version="1.0" encoding="UTF-8"?>
<svg id="Layer_1" data-name="Layer 1" xmlns="http://www.w3.org/2000/svg" viewBox="0 0 500 500">
  <defs>
    <style>
      .cls-1 {
        fill: #00ecff;
      }

      .cls-2 {
        font-family: BROmega-Medium, 'BR Omega';
        font-size: 60.04px;
        font-weight: 500;
      }

      .cls-2, .cls-3 {
        fill: #fff;
      }

      .cls-4 {
        fill: #009fff;
      }

      .cls-5 {
        letter-spacing: 0em;
      }

      .cls-6 {
        letter-spacing: -.02em;
      }

      .cls-7 {
        letter-spacing: 0em;
      }

      .cls-8 {
        letter-spacing: 0em;
      }

      .cls-9 {
        letter-spacing: 0em;
      }

      .cls-10 {
        letter-spacing: 0em;
      }

      .cls-11 {
        letter-spacing: 0em;
      }
    </style>
  </defs>
  <text class="cls-2" transform="translate(113.28 307.84) scale(1.08 1)"><tspan class="cls-10" x="0" y="0">S</tspan><tspan class="cls-7" x="35.97" y="0">o</tspan><tspan class="cls-9" x="70.55" y="0">f</tspan><tspan class="cls-11" x="92.04" y="0">t</tspan><tspan class="cls-8" x="114.68" y="0">w</tspan><tspan x="161.82" y="0">a</tspan><tspan class="cls-6" x="197.72" y="0">r</tspan><tspan class="cls-5" x="219.1" y="0">e</tspan></text>
  <path class="cls-3" d="M118.05,222.81l-.11-4.07h13.88v4.99c0,8.76,6.28,13.85,15.76,13.85s16.09-5.09,16.09-13.85v-35.34h-10.8v-11.71h24.57v46.14c0,16.3-11.79,26.48-29.42,26.48h-.55c-17.63,0-29.42-10.19-29.42-26.48Z"/>
  <path class="cls-3" d="M187.91,176.67h29.2c22.92,0,37.13,14.06,37.13,35.24s-14.21,36.06-37.13,36.06h-29.2v-71.3ZM215.78,236.25c15.43,0,24.68-9.47,24.68-23.73s-9.25-24.14-24.68-24.14h-14.1v47.87h14.1Z"/>
  <g>
    <polygon class="cls-4" points="279.31 212.32 253.11 176.68 279.31 176.68 293.08 195.43 331.72 248.06 306.08 248.06 292.67 231.11 281.3 248.06 254.25 248.06 279.31 212.32"/>
    <path class="cls-1" d="M321.41,197.41c4.46-6.91,8.93-13.83,13.39-20.74h-26.77c-4.37,6.91-8.75,13.83-13.12,20.74h26.51Z"/>
  </g>
</svg>