<?xml version="1.0" encoding="UTF-8"?><svg id="Layer_1" xmlns="http://www.w3.org/2000/svg" viewBox="0 0 416.12 68.24"><defs><style>.cls-1{fill:#00a068;}.cls-2{isolation:isolate;}.cls-3{fill:#0f1729;}</style></defs><path class="cls-1" d="M77.85,59.16h4L58.13,6.49c-1.1-2.44-4.55-2.48-5.71-.07l-25.22,52.73h2.49c10.75,0,20.63-5.13,25.71-13.36h0c3.59,8.05,12.51,13.36,22.45,13.36h0Z"/><path class="cls-1" d="M.01,59.16H.01L24.49,6.32c1.11-2.4,4.52-2.44,5.68-.06l7.88,16.17-9.57,20.16c-4.75,10.02-16,16.56-28.48,16.56h.01Z"/><g class="cls-2"><path class="cls-1" d="M332.49,9.82c0-3.54,2.82-6.17,6.37-6.17s6.3,2.63,6.3,6.17-2.76,6.17-6.3,6.17-6.37-2.56-6.37-6.17ZM333.93,21.04h9.71v34.59h-9.71V21.04Z"/></g><g class="cls-2"><path class="cls-3" d="M138.81,55.64l-2.3-31.44-9.85,29.93h-8.07l-9.85-30-2.36,31.51h-8.99l3.28-45.62h9.12v.07l2.23-.07,10.63,32.23,10.57-32.23,2.23.07v-.07h9.06l3.35,45.62h-9.06Z"/></g><g class="cls-2"><path class="cls-3" d="M189.03,21.04v34.59h-8.99v-3.81c-2.49,2.95-6.1,4.66-10.63,4.66-9.98,0-17.2-7.81-17.2-18.12s7.22-17.53,17.2-17.53c4.53,0,8.14,1.58,10.63,4.4v-4.2h8.99ZM179.71,38.37c0-5.65-3.61-9.58-8.93-9.58s-8.93,4.07-8.93,9.58,3.74,9.52,8.93,9.52,8.93-3.87,8.93-9.52Z"/><path class="cls-3" d="M229.14,33.84v21.79h-9.65v-19.89c0-4.4-2.89-6.89-6.83-6.89s-6.89,2.76-6.96,6.3v20.48h-9.72V21.04h9.19v3.22c2.36-2.43,5.97-4.07,10.44-4.07,8.27,0,13.52,5.58,13.52,13.65Z"/><path class="cls-3" d="M268.07,21.04v34.59h-9.12v-3.28c-2.43,2.49-5.97,4.13-10.11,4.13-8.8,0-13.39-6.04-13.39-13.92v-21.53h9.71v20.28c0,3.81,2.49,6.5,6.56,6.5s6.63-2.69,6.63-6.3v-20.48h9.71Z"/><path class="cls-3" d="M310.28,21.04v34.59h-8.99v-3.81c-2.49,2.95-6.1,4.66-10.63,4.66-9.98,0-17.2-7.81-17.2-18.12s7.22-17.53,17.2-17.53c4.53,0,8.14,1.58,10.63,4.4v-4.2h8.99ZM300.96,38.37c0-5.65-3.61-9.58-8.93-9.58s-8.93,4.07-8.93,9.58,3.74,9.52,8.93,9.52,8.93-3.87,8.93-9.52Z"/><path class="cls-3" d="M317.24,7.65h9.72v47.98h-9.72V7.65Z"/></g><g class="cls-2"><path class="cls-1" d="M377.92,47.83v7.81h-29.08v-6.83l16.54-19.96h-15.82v-7.81h27.7v7.16l-16.28,19.63h16.94Z"/></g><g class="cls-2"><path class="cls-1" d="M399.25,48.42c4.27,0,6.43-1.51,7.94-4.27l7.42,4.92c-2.69,3.94-7.16,7.42-15.62,7.42-11.23,0-18.51-7.81-18.51-18.12s7.94-18.12,17.85-18.12c11.16,0,17.79,8.73,17.79,17.4,0,1.51-.07,2.82-.2,3.68h-25.93c1.12,4.53,4.66,7.09,9.25,7.09ZM407,34.96c-.92-4.53-3.94-7.35-8.4-7.35s-7.75,2.62-8.73,7.35h17.13Z"/></g></svg>